<?xml version="1.0" encoding="UTF-8"?>
<svg xmlns="http://www.w3.org/2000/svg" xmlns:xlink="http://www.w3.org/1999/xlink" width="15px" height="14px" viewBox="0 0 15 14">
    <path d="M 0.335938 9.625 L 1.179688 9.625 C 1.75 12.433594 4.738281 14 7.5 14 C 10.265625 14 13.25 12.429688 13.820312 9.625 L 14.664062 9.625 C 14.941406 9.625 15.078125 9.273438 14.882812 9.066406 L 13.136719 7.230469 C 13.015625 7.105469 12.816406 7.105469 12.695312 7.230469 L 10.949219 9.066406 C 10.753906 9.273438 10.894531 9.625 11.171875 9.625 L 12.085938 9.625 C 11.558594 11.109375 9.875 11.992188 8.332031 12.195312 L 8.332031 7 L 9.6875 7 C 9.859375 7 10 6.851562 10 6.671875 L 10 5.578125 C 10 5.398438 9.859375 5.25 9.6875 5.25 L 8.332031 5.25 L 8.332031 5.101562 C 9.304688 4.738281 10 3.769531 10 2.625 C 10 1.195312 8.894531 0.0195312 7.535156 0 C 6.136719 -0.0195312 5 1.164062 5 2.625 C 5 3.769531 5.695312 4.738281 6.667969 5.101562 L 6.667969 5.25 L 5.3125 5.25 C 5.140625 5.25 5 5.398438 5 5.578125 L 5 6.671875 C 5 6.851562 5.140625 7 5.3125 7 L 6.667969 7 L 6.667969 12.195312 C 5.132812 11.992188 3.441406 11.109375 2.914062 9.625 L 3.828125 9.625 C 4.105469 9.625 4.246094 9.273438 4.050781 9.066406 L 2.304688 7.230469 C 2.183594 7.105469 1.984375 7.105469 1.863281 7.230469 L 0.117188 9.066406 C -0.078125 9.273438 0.0585938 9.625 0.335938 9.625 Z M 7.5 1.75 C 7.960938 1.75 8.332031 2.140625 8.332031 2.625 C 8.332031 3.109375 7.960938 3.5 7.5 3.5 C 7.039062 3.5 6.667969 3.109375 6.667969 2.625 C 6.667969 2.140625 7.039062 1.75 7.5 1.75 Z M 7.5 1.75 "/>
</svg>
